<?xml version="1.0" encoding="utf-8"?>
<!-- Generator: Adobe Illustrator 24.0.1, SVG Export Plug-In . SVG Version: 6.00 Build 0)  -->
<svg version="1.1" id="Layer_1" xmlns="http://www.w3.org/2000/svg" xmlns:xlink="http://www.w3.org/1999/xlink" x="0px" y="0px"
	 viewBox="0 0 24 24" style="enable-background:new 0 0 24 24;" xml:space="preserve">
<style type="text/css">
	.st0{fill:#FFFFFF;}
</style>
<path class="st0" d="M12,7.7c1.1,0,2,0.9,2,2s-0.9,2-2,2s-2-0.9-2-2S10.9,7.7,12,7.7 M8.1,9.1c0.3,0,0.6,0.1,0.9,0.2
	c-0.1,0.8,0.2,1.6,0.6,2.2c-0.3,0.5-0.8,0.9-1.5,0.9c-0.9,0-1.7-0.8-1.7-1.7C6.4,9.8,7.2,9.1,8.1,9.1 M15.9,9.1
	c0.9,0,1.7,0.8,1.7,1.7c0,0.9-0.8,1.7-1.7,1.7c-0.6,0-1.2-0.4-1.5-0.9c0.5-0.6,0.7-1.4,0.6-2.2C15.3,9.2,15.6,9.1,15.9,9.1
	 M8.4,14.8c0-1.2,1.6-2.1,3.6-2.1s3.6,0.9,3.6,2.1v1H8.4V14.8 M5.3,15.8V15c0-0.8,1.1-1.4,2.5-1.6c-0.3,0.4-0.5,0.9-0.5,1.5v1H5.3
	 M18.7,15.8h-2v-1c0-0.6-0.2-1.1-0.5-1.5c1.4,0.2,2.5,0.8,2.5,1.6V15.8z"/>
</svg>
